<svg width="166" height="64" viewBox="0 0 166 64" fill="none" xmlns="http://www.w3.org/2000/svg">
<path d="M10.9406 47.391C9.4967 47.391 8.38597 47.0588 7.60847 46.3945C6.79393 45.767 6.23857 45.2687 5.94238 44.8997L1.94377 45.1211C1.75865 45.1211 1.51799 44.8997 1.2218 44.4567C0.88858 44.0508 0.610899 43.5894 0.388754 43.0727C0.129585 42.5928 0 42.2607 0 42.0761C0 42.0023 0.037024 41.9654 0.111072 41.9654C1.2218 42.0392 2.36955 42.0946 3.55432 42.1315C4.73909 42.1684 5.96089 42.1869 7.21971 42.1869C8.62663 42.1869 10.0521 42.1499 11.496 42.0761C12.9399 42.0392 14.4024 41.9839 15.8834 41.91C16.883 40.0277 17.7716 37.684 18.5491 34.8789C19.3636 32.0369 20.0671 28.955 20.6595 25.6332C21.2889 22.2745 21.8072 18.8604 22.2145 15.391C22.6588 11.9216 22.992 8.59977 23.2141 5.4256C20.9187 5.94233 18.7527 6.58824 16.7164 7.36332C14.7171 8.13841 13.014 8.96886 11.6071 9.85467H11.5515C11.4775 9.85467 11.4405 9.72549 11.4405 9.46713C11.4405 9.13495 11.4775 8.72895 11.5515 8.24914C11.6626 7.76932 11.7737 7.34487 11.8848 6.97578C12.0329 6.56978 12.1624 6.34833 12.2735 6.31142C13.5694 5.75778 15.1799 5.24106 17.1052 4.76124C19.0674 4.28143 21.1408 3.87543 23.3252 3.54325L23.4918 1.38408C23.5289 0.941176 23.8436 0.608996 24.4359 0.387542C25.0654 0.166089 25.7133 0.0553626 26.3797 0.0553626C27.1202 0.0553626 27.6015 0.184544 27.8237 0.442907C28.0828 0.66436 28.2124 1.03345 28.2124 1.55017C28.2124 1.77163 28.1939 1.99308 28.1569 2.21453C28.1199 2.43599 28.0828 2.69435 28.0458 2.98962C29.4897 2.87889 30.9152 2.82353 32.3221 2.82353C33.3958 2.82353 34.525 2.87889 35.7098 2.98962C36.9316 3.10034 37.9498 3.24798 38.7643 3.43252C39.6159 3.61707 40.0416 3.83852 40.0416 4.09689C40.0416 4.13379 40.0046 4.15225 39.9306 4.15225C39.116 4.11534 38.2274 4.09689 37.2648 4.09689C36.3392 4.05998 35.3766 4.04152 34.3769 4.04152C33.3403 4.04152 32.2666 4.09689 31.1558 4.20761C30.0451 4.28143 28.9529 4.39216 27.8792 4.53979C27.62 6.56978 27.2868 8.80277 26.8795 11.2388C26.5093 13.6747 26.065 16.1476 25.5467 18.6574C25.0654 21.1303 24.5655 23.474 24.0472 25.6886C23.5659 27.9031 23.0846 29.8224 22.6033 31.4464C22.3811 32.1845 22.0664 33.1442 21.6591 34.3253C21.2889 35.4694 20.8261 36.6874 20.2707 37.9792C19.7154 39.271 19.0674 40.5075 18.327 41.6886C21.2519 41.4302 24.0657 41.098 26.7685 40.692C29.4712 40.2491 31.8593 39.714 33.9326 39.0865H34.0993C34.2844 39.0865 34.3769 39.1234 34.3769 39.1972C34.3769 39.4556 33.8956 39.7509 32.933 40.083C31.9704 40.4152 30.656 40.7659 28.9899 41.1349C27.3609 41.5409 25.5096 41.9469 23.4363 42.3529C21.4 42.7589 19.2896 43.128 17.1052 43.4602C16.2536 44.6044 15.3095 45.5456 14.2728 46.2837C13.2361 47.0219 12.1254 47.391 10.9406 47.391ZM11.0517 46.1176C12.3105 46.1176 13.5138 45.3426 14.6616 43.7924C13.3287 43.9769 12.0143 44.1615 10.7185 44.346C9.45967 44.5306 8.23788 44.6782 7.0531 44.7889C7.49739 45.0473 8.05276 45.3241 8.71919 45.6194C9.3486 45.9516 10.1261 46.1176 11.0517 46.1176Z" fill="#0A0908"/>
<path d="M36.4162 44.346C36.0459 44.346 35.5276 44.0508 34.8611 43.4602C34.2317 42.9066 33.7874 42.1684 33.5283 41.2457C33.3802 40.6182 33.2691 39.7693 33.1951 38.699C33.121 37.6286 33.084 36.4291 33.084 35.1003C33.084 32.8858 33.121 30.5052 33.1951 27.9585C33.3061 25.4118 33.3617 23.1234 33.3617 21.0934C33.3617 20.4291 33.3431 19.8016 33.3061 19.2111C33.3061 18.6205 33.2876 18.1038 33.2506 17.6609C33.1765 17.5871 32.9544 17.5317 32.5842 17.4948C32.2509 17.421 31.9177 17.3656 31.5845 17.3287C31.2883 17.2549 31.1402 17.218 31.1402 17.218C31.1402 17.1442 31.4179 16.9781 31.9733 16.7197C32.5656 16.4245 33.3987 16.2768 34.4724 16.2768C35.5831 16.2768 36.3051 16.5167 36.6383 16.9965C37.0085 17.4394 37.1937 17.827 37.1937 18.1592C37.1937 18.233 37.1937 18.3253 37.1937 18.436C37.1937 18.5467 37.1752 18.639 37.1381 18.7128C36.7309 20.669 36.3421 22.9758 35.9719 25.6332C35.6016 28.2537 35.4165 31.0219 35.4165 33.9377C35.4165 34.639 35.4165 35.2664 35.4165 35.8201C35.4535 36.3368 35.472 36.7982 35.472 37.2042V37.7024C35.6942 35.6355 36.0829 33.6794 36.6383 31.8339C37.1937 29.9516 37.749 27.9031 38.3044 25.6886C38.7487 23.7693 39.1189 22.293 39.4151 21.2595C39.7483 20.1892 40.0815 19.451 40.4148 19.045C40.785 18.6021 41.2108 18.3806 41.6921 18.3806C42.3585 18.3806 42.8213 18.6574 43.0805 19.2111C43.3397 19.7647 43.5063 20.5213 43.5803 21.481C43.6544 22.4406 43.7284 23.5479 43.8025 24.8028C43.8765 26.0208 44.0616 27.331 44.3578 28.7336C44.8021 30.8374 45.3205 32.3691 45.9129 33.3287C46.5052 34.2883 47.0051 34.7682 47.4123 34.7682C47.8936 34.7682 48.375 34.4729 48.8563 33.8824C49.3376 33.2549 49.8004 32.5352 50.2447 31.7232C50.689 30.9112 51.0777 30.2099 51.4109 29.6194C51.7812 28.9919 52.0774 28.6782 52.2995 28.6782C52.4106 28.6782 52.4661 28.7705 52.4661 28.955C52.4661 29.1027 52.4106 29.3426 52.2995 29.6747C51.3739 31.7416 50.5964 33.3472 49.967 34.4914C49.3376 35.5986 48.4675 36.1522 47.3568 36.1522C46.5052 36.1522 45.6537 35.7832 44.8021 35.045C44.3578 34.6759 43.9136 34.0854 43.4693 33.2734C43.062 32.4245 42.6732 31.5017 42.303 30.5052C41.9328 29.5087 41.581 28.5675 41.2478 27.6817C40.9516 26.7589 40.6924 26.0023 40.4703 25.4118C40.2482 24.8212 40.1001 24.526 40.026 24.526C39.952 24.526 39.8224 24.5998 39.6373 24.7474C39.4892 24.895 39.3781 25.1534 39.304 25.5225C38.6746 27.8108 38.1563 30.0807 37.749 32.3322C37.3788 34.5467 37.1011 36.5583 36.916 38.3668C36.7309 40.1384 36.6383 41.504 36.6383 42.4637C36.6383 42.9435 36.6568 43.2757 36.6938 43.4602C36.7679 43.6817 36.8049 43.8478 36.8049 43.9585C36.8049 44.2168 36.6753 44.346 36.4162 44.346Z" fill="#0A0908"/>
<path d="M55.2113 22.8097C54.9891 22.8097 54.7485 22.7728 54.4893 22.699C54.2672 22.5882 54.045 22.4775 53.8229 22.3668C53.6748 22.2561 53.6007 22.1084 53.6007 21.9239C53.6007 21.5917 53.8043 21.1857 54.2116 20.7059C54.6189 20.1892 55.1372 19.7463 55.7666 19.3772C56.396 19.0081 57.0069 18.8235 57.5993 18.8235C57.9325 18.8235 58.0992 18.9158 58.0992 19.1003C58.0992 19.248 57.9325 19.4325 57.5993 19.654C57.1921 19.9493 56.8959 20.3552 56.7107 20.872C56.5256 21.3887 56.3405 21.8501 56.1554 22.2561C55.9703 22.6251 55.6556 22.8097 55.2113 22.8097ZM52.2123 39.5294C51.5089 39.5294 51.0275 39.308 50.7684 38.8651C50.5092 38.4221 50.3796 37.7393 50.3796 36.8166C50.3796 36.3368 50.3981 35.8201 50.4352 35.2664C50.4722 34.7128 50.5462 34.0854 50.6573 33.3841C50.9905 30.8743 51.3608 28.8812 51.768 27.4048C52.1753 25.8916 52.6936 25.1349 53.323 25.1349C53.8414 25.1349 54.3042 25.4302 54.7114 26.0208C55.1187 26.6113 55.3964 27.0358 55.5445 27.2941C55.2853 27.7739 54.9336 28.549 54.4893 29.6194C54.082 30.6897 53.7118 31.8155 53.3786 32.9965C53.0454 34.1776 52.8787 35.2111 52.8787 36.0969C52.8787 36.9827 53.0824 37.4256 53.4896 37.4256C53.8229 37.4256 54.1931 37.2411 54.6004 36.872C55.0447 36.5029 55.4519 36.0969 55.8222 35.654C56.2294 35.2111 56.4886 34.8974 56.5997 34.7128C57.8585 32.8305 58.6545 31.391 58.9877 30.3945C59.358 29.3979 59.7097 28.8997 60.0429 28.8997C60.191 28.8997 60.2651 29.0104 60.2651 29.2318C60.2651 29.3795 60.228 29.5456 60.154 29.7301C60.117 29.8777 60.0614 30.0807 59.9874 30.3391C59.7652 30.9296 59.4135 31.7416 58.9322 32.7751C58.4509 33.7716 57.8585 34.7866 57.155 35.8201C56.4886 36.8535 55.7296 37.7393 54.8781 38.4775C54.0635 39.1788 53.1749 39.5294 52.2123 39.5294Z" fill="#0A0908"/>
<path d="M64.4003 39.308C63.0675 39.308 62.0863 38.8835 61.4569 38.0346C60.8275 37.1488 60.5128 36.0784 60.5128 34.8235C60.5128 33.4948 60.8275 31.8708 61.4569 29.9516C62.0863 28.0323 62.7528 26.2238 63.4562 24.526C62.8268 24.9319 62.1789 25.301 61.5125 25.6332C60.846 25.9654 60.2536 26.1315 59.7353 26.1315C59.3651 26.1315 59.0874 26.0392 58.9023 25.8547C58.7542 25.6701 58.6801 25.4671 58.6801 25.2457C58.6801 25.0611 58.7356 24.7843 58.8467 24.4152C58.9578 24.0461 59.1429 23.6955 59.4021 23.3633C59.6983 23.0311 60.05 22.8651 60.4573 22.8651C60.6054 22.8651 60.6794 22.9204 60.6794 23.0311C60.6794 23.0681 60.6609 23.105 60.6239 23.1419C60.6239 23.1419 60.6239 23.1603 60.6239 23.1972C60.5869 23.271 60.5683 23.3449 60.5683 23.4187C60.5683 23.5663 60.6609 23.6401 60.846 23.6401C60.9571 23.6401 61.0867 23.6217 61.2348 23.5848C61.4199 23.5479 61.605 23.4741 61.7901 23.3633C62.1604 23.1788 62.5862 22.9573 63.0675 22.699C63.5488 22.4037 64.0856 22.1084 64.678 21.8131L65.5111 20.1523C65.7332 19.7463 65.9924 19.4694 66.2886 19.3218C66.5848 19.1373 66.8625 19.045 67.1216 19.045C67.5289 19.045 67.8806 19.1188 68.1768 19.2664C68.51 19.3772 68.8062 19.5248 69.0654 19.7093C69.4727 19.5248 69.8984 19.3587 70.3427 19.2111C70.824 19.0265 71.2868 18.8973 71.7311 18.8235C73.1381 18.3068 74.6005 17.9008 76.1185 17.6055C77.6365 17.2734 79.136 17.1073 80.6169 17.1073C81.4315 17.1073 82.2645 17.218 83.1161 17.4394C83.9676 17.6609 84.3934 18.0115 84.3934 18.4913C84.3934 18.639 84.2453 18.7128 83.9491 18.7128C83.3567 18.7128 82.6718 18.639 81.8943 18.4913C81.1538 18.3437 80.4133 18.2699 79.6728 18.2699C78.7472 18.2699 77.8586 18.3253 77.0071 18.436C76.1555 18.5098 75.3595 18.639 74.619 18.8235C75.2114 19.0819 75.6927 19.5248 76.063 20.1523C76.4702 20.7797 76.6739 21.5732 76.6739 22.5329C76.6739 23.5663 76.4147 24.8028 75.8963 26.2422C75.415 27.6817 74.7486 29.158 73.897 30.6713C73.0825 32.1845 72.1384 33.6055 71.0647 34.9343C69.991 36.2261 68.8803 37.278 67.7325 38.09C66.5848 38.902 65.474 39.308 64.4003 39.308ZM65.0112 38.1453C65.7888 38.1453 66.5848 37.7947 67.3993 37.0934C68.2509 36.3922 69.0839 35.5063 69.8984 34.436C70.713 33.3656 71.4349 32.2584 72.0644 31.1142C72.3605 30.5975 72.6938 29.8962 73.064 29.0104C73.4713 28.1246 73.8045 27.1834 74.0637 26.1869C74.3598 25.1903 74.5079 24.286 74.5079 23.474C74.5079 22.7359 74.3413 22.1269 74.0081 21.6471C73.7119 21.1303 73.1381 20.872 72.2865 20.872C71.8792 20.872 71.3609 20.9827 70.7315 21.2042C70.1021 21.4256 69.4356 21.684 68.7322 21.9792C68.5841 22.1269 68.436 22.293 68.2879 22.4775C68.1768 22.6251 68.0843 22.7912 68.0102 22.9758C67.3067 24.2676 66.6033 25.707 65.8998 27.2941C65.1964 28.8443 64.604 30.3576 64.1227 31.8339C63.6784 33.3103 63.4562 34.6021 63.4562 35.7093C63.4562 37.3333 63.9746 38.1453 65.0112 38.1453Z" fill="#0A0908"/>
<path d="M83.041 37.9792C82.4486 37.9054 81.8192 37.6471 81.1528 37.2042C80.4863 36.7243 80.1531 36.1892 80.1531 35.5986C80.1531 35.451 80.1716 35.3218 80.2087 35.2111C80.727 33.3656 81.1343 31.2065 81.4305 28.7336C81.7266 26.2607 81.9488 23.6586 82.0969 20.9273C82.282 18.1961 82.4486 15.5386 82.5967 12.955C82.7448 10.3714 82.9299 8.02768 83.1521 5.92388C83.4112 3.82007 83.763 2.17762 84.2073 0.99654C84.2813 0.33218 84.5405 0 84.9848 0C85.5031 0 86.114 0.387543 86.8175 1.16263C87.5209 1.93772 87.9097 2.86044 87.9837 3.93079C87.7616 5.37024 87.4654 7.12342 87.0951 9.19031C86.7249 11.2203 86.3176 13.3795 85.8733 15.6678C85.4661 17.9193 85.0588 20.1523 84.6516 22.3668C84.2443 24.5813 83.874 26.6113 83.5408 28.4567C83.2076 30.2653 82.9484 31.7047 82.7633 32.7751C83.1336 32.1107 83.6519 31.2803 84.3183 30.2837C84.9848 29.2503 85.7438 28.1799 86.5953 27.0727C87.4469 25.9654 88.3355 24.9319 89.2611 23.9723C90.1867 22.9758 91.0938 22.1822 91.9823 21.5917C92.8709 20.9642 93.6669 20.6505 94.3704 20.6505C95.2219 20.6505 95.8884 20.9827 96.3697 21.6471C96.888 22.2745 97.1472 23.0127 97.1472 23.8616C97.1472 24.5998 96.888 25.5409 96.3697 26.6851C95.8514 27.7924 95.1294 28.9735 94.2038 30.2284C93.3152 31.4464 92.26 32.6275 91.0382 33.7716C89.8534 34.8789 88.5761 35.8201 87.2062 36.5952C85.8363 37.3702 84.4479 37.8316 83.041 37.9792ZM82.319 36.0415C83.5038 35.8201 84.7811 35.3033 86.151 34.4914C87.5209 33.6794 88.7983 32.6828 89.983 31.5017C91.2048 30.3206 92.186 29.0288 92.9265 27.6263C93.704 26.2238 94.0927 24.8397 94.0927 23.474C94.0927 22.9204 93.8706 22.6436 93.4263 22.6436C92.9079 22.6436 92.2415 23.0127 91.427 23.7509C90.6124 24.4521 89.7239 25.3749 88.7612 26.519C87.8356 27.6263 86.9285 28.8074 86.04 30.0623C85.1514 31.2803 84.3739 32.4429 83.7074 33.5502C83.041 34.6205 82.5782 35.451 82.319 36.0415Z" fill="#0A0908"/>
<path d="M108.556 41.0796C106.667 41.0796 105.038 40.6182 103.668 39.6955C102.336 38.7359 101.299 37.4994 100.558 35.9862C99.8549 34.4729 99.5032 32.9043 99.5032 31.2803C99.5032 29.9516 99.7623 28.4567 100.281 26.7958C99.5772 26.7958 99.2255 26.5375 99.2255 26.0208C99.2255 25.6148 99.6142 25.2641 100.392 24.9689L101.114 24.692C101.78 23.2526 102.595 21.9239 103.557 20.7059C104.557 19.451 105.668 18.436 106.889 17.6609C108.148 16.8858 109.463 16.4983 110.833 16.4983C111.61 16.4983 112.369 16.6275 113.11 16.8858C113.85 17.1442 114.461 17.4579 114.942 17.827C115.461 18.1592 115.72 18.4729 115.72 18.7682C115.72 18.8789 115.646 18.9343 115.498 18.9343C115.35 18.9343 115.22 18.8973 115.109 18.8235C114.591 18.6021 114.072 18.4544 113.554 18.3806C113.073 18.2699 112.61 18.2145 112.165 18.2145C110.759 18.2145 109.444 18.6943 108.222 19.654C107.001 20.6136 105.927 21.8316 105.001 23.308L119.829 18.1038C120.718 17.8085 121.847 17.5502 123.217 17.3287C124.587 17.1073 125.864 16.9965 127.049 16.9965C128.456 16.9965 129.493 17.1811 130.159 17.5502C130.863 17.9193 131.214 18.3068 131.214 18.7128C131.214 19.0819 130.918 19.2664 130.326 19.2664C129.956 19.2664 129.363 19.1557 128.549 18.9343C127.771 18.6759 126.901 18.5467 125.938 18.5467C125.013 18.5467 124.013 18.6205 122.939 18.7682C121.903 18.8789 121.014 19.0265 120.274 19.2111C119.533 19.3956 119.163 19.5617 119.163 19.7093C119.163 19.8201 119.348 19.8754 119.718 19.8754C120.533 19.9123 121.347 20.0415 122.162 20.263C123.014 20.4844 123.735 20.8904 124.328 21.481C124.92 22.0346 125.216 22.8651 125.216 23.9723C125.216 25.0427 124.902 26.316 124.272 27.7924C123.68 29.2687 122.847 30.782 121.773 32.3322C120.699 33.8454 119.459 35.2664 118.052 36.5952C116.645 37.9239 115.127 39.0127 113.498 39.8616C111.869 40.6736 110.222 41.0796 108.556 41.0796ZM106.556 39.1972C107.889 39.1972 109.259 38.8281 110.666 38.09C112.073 37.3149 113.424 36.3368 114.72 35.1557C116.016 33.9746 117.182 32.7013 118.219 31.3356C119.256 29.9331 120.07 28.5859 120.662 27.2941C121.292 26.0023 121.607 24.9135 121.607 24.0277C121.607 22.7359 121.218 21.8316 120.44 21.3149C119.7 20.7982 118.904 20.5398 118.052 20.5398C117.275 20.5398 116.294 20.7243 115.109 21.0934C113.961 21.4256 112.702 21.8685 111.332 22.4221C110 22.9758 108.667 23.5479 107.334 24.1384C106.001 24.729 104.798 25.2457 103.724 25.6886C103.243 26.8328 102.854 28.0138 102.558 29.2318C102.261 30.4129 102.113 31.5386 102.113 32.609C102.15 33.4948 102.28 34.4544 102.502 35.4879C102.761 36.4844 103.206 37.3518 103.835 38.09C104.501 38.8281 105.409 39.1972 106.556 39.1972Z" fill="#0A0908"/>
<path d="M131.544 44.346C131.173 44.346 130.655 44.0508 129.989 43.4602C129.359 42.9066 128.915 42.1684 128.656 41.2457C128.508 40.6182 128.397 39.7693 128.323 38.699C128.249 37.6286 128.211 36.4291 128.211 35.1003C128.211 32.8858 128.249 30.5052 128.323 27.9585C128.434 25.4118 128.489 23.1234 128.489 21.0934C128.489 20.4291 128.471 19.8016 128.434 19.2111C128.434 18.6205 128.415 18.1038 128.378 17.6609C128.304 17.5871 128.082 17.5317 127.712 17.4948C127.378 17.421 127.045 17.3656 126.712 17.3287C126.416 17.2549 126.268 17.218 126.268 17.218C126.268 17.1442 126.545 16.9781 127.101 16.7197C127.693 16.4245 128.526 16.2768 129.6 16.2768C130.711 16.2768 131.433 16.5167 131.766 16.9965C132.136 17.4394 132.321 17.827 132.321 18.1592C132.321 18.233 132.321 18.3253 132.321 18.436C132.321 18.5467 132.303 18.639 132.266 18.7128C131.858 20.669 131.47 22.9758 131.099 25.6332C130.729 28.2537 130.544 31.0219 130.544 33.9377C130.544 34.639 130.544 35.2664 130.544 35.8201C130.581 36.3368 130.6 36.7982 130.6 37.2042V37.7024C130.822 35.6355 131.21 33.6794 131.766 31.8339C132.321 29.9516 132.877 27.9031 133.432 25.6886C133.876 23.7693 134.246 22.293 134.543 21.2595C134.876 20.1892 135.209 19.451 135.542 19.045C135.913 18.6021 136.338 18.3806 136.82 18.3806C137.486 18.3806 137.949 18.6574 138.208 19.2111C138.467 19.7647 138.634 20.5213 138.708 21.481C138.782 22.4406 138.856 23.5479 138.93 24.8028C139.004 26.0208 139.189 27.331 139.485 28.7336C139.93 30.8374 140.448 32.3691 141.04 33.3287C141.633 34.2883 142.133 34.7682 142.54 34.7682C143.021 34.7682 143.502 34.4729 143.984 33.8824C144.465 33.2549 144.928 32.5352 145.372 31.7232C145.816 30.9112 146.205 30.2099 146.538 29.6194C146.909 28.9919 147.205 28.6782 147.427 28.6782C147.538 28.6782 147.594 28.7705 147.594 28.955C147.594 29.1027 147.538 29.3426 147.427 29.6747C146.501 31.7416 145.724 33.3472 145.095 34.4914C144.465 35.5986 143.595 36.1522 142.484 36.1522C141.633 36.1522 140.781 35.7832 139.93 35.045C139.485 34.6759 139.041 34.0854 138.597 33.2734C138.189 32.4245 137.801 31.5017 137.431 30.5052C137.06 29.5087 136.709 28.5675 136.375 27.6817C136.079 26.7589 135.82 26.0023 135.598 25.4118C135.376 24.8212 135.228 24.526 135.154 24.526C135.079 24.526 134.95 24.5998 134.765 24.7474C134.617 24.895 134.506 25.1534 134.432 25.5225C133.802 27.8108 133.284 30.0807 132.877 32.3322C132.506 34.5467 132.229 36.5583 132.043 38.3668C131.858 40.1384 131.766 41.504 131.766 42.4637C131.766 42.9435 131.784 43.2757 131.821 43.4602C131.895 43.6817 131.932 43.8478 131.932 43.9585C131.932 44.2168 131.803 44.346 131.544 44.346Z" fill="#0A0908"/>
<path d="M150.616 64C149.95 64 149.45 63.6125 149.117 62.8374C150.08 60.7705 151.042 58.5559 152.005 56.1938C153.005 53.8316 153.949 51.4141 154.837 48.9412C155.763 46.4683 156.54 44.0508 157.17 41.6886C156.133 42.5006 155.078 43.3864 154.004 44.346C152.93 45.3057 151.912 46.4129 150.95 47.6678C149.728 49.1811 148.784 50.9712 148.117 53.0381C147.488 55.1419 147.173 57.0796 147.173 58.8512C147.173 60.9919 147.617 62.5975 148.506 63.6678C148.617 63.7785 148.673 63.8524 148.673 63.8893C148.673 63.8893 148.654 63.8893 148.617 63.8893C148.617 63.9262 148.599 63.9446 148.562 63.9446C148.414 63.9446 148.228 63.8893 148.006 63.7785C147.821 63.6678 147.636 63.5017 147.451 63.2803C146.71 62.5052 146.155 61.564 145.785 60.4568C145.452 59.3864 145.285 58.2238 145.285 56.9689C145.285 55.5294 145.563 54.0715 146.118 52.5952C146.673 51.1188 147.488 49.7347 148.562 48.4429C150.117 46.5606 151.653 44.9919 153.171 43.737C154.689 42.519 156.152 41.3195 157.559 40.1384C158.114 37.9608 158.503 35.8385 158.725 33.7716C158.91 32.1476 159.021 30.7266 159.058 29.5086C159.132 28.2907 159.169 27.2203 159.169 26.2976C159.169 25.707 159.151 25.1719 159.114 24.692C159.076 24.2122 159.039 23.7693 159.002 23.3633L158.558 23.474C157.929 24.4706 157.17 25.6517 156.281 27.0173C155.393 28.3829 154.43 29.7301 153.393 31.0588C152.357 32.3506 151.32 33.4394 150.283 34.3253C149.247 35.2111 148.265 35.654 147.34 35.654C146.562 35.654 145.951 35.3956 145.507 34.8789C145.063 34.3253 144.841 33.6978 144.841 32.9965C144.841 32.812 144.878 32.5721 144.952 32.2768C145.285 30.579 145.933 28.9919 146.896 27.5156C147.895 26.0023 149.024 24.6736 150.283 23.5294C151.579 22.3852 152.856 21.481 154.115 20.8166C155.374 20.1523 156.448 19.8201 157.336 19.8201C158.003 19.8201 158.632 19.9677 159.225 20.263C159.854 20.5213 160.446 20.9642 161.002 21.5917C161.113 21.7024 161.168 21.8316 161.168 21.9792C161.168 22.3114 160.817 22.6251 160.113 22.9204C160.409 23.474 160.594 24.1938 160.669 25.0796C160.78 25.9285 160.835 26.8328 160.835 27.7924C160.835 29.3795 160.743 31.0404 160.557 32.7751C160.372 34.5098 160.132 36.263 159.835 38.0346C160.798 37.075 161.724 35.9862 162.612 34.7682C163.501 33.5502 164.352 32.0923 165.167 30.3945C165.389 29.9516 165.593 29.7301 165.778 29.7301C165.926 29.7301 166 29.8593 166 30.1176C166 30.5236 165.815 31.1142 165.445 31.8893C165.111 32.6644 164.704 33.4579 164.223 34.2699C163.742 35.0819 163.26 35.7832 162.779 36.3737C162.298 36.9642 161.779 37.5548 161.224 38.1453C160.706 38.699 160.15 39.2341 159.558 39.7509C159.076 42.2976 158.521 44.7889 157.892 47.2249C157.262 49.6609 156.633 51.8939 156.003 53.9239C155.374 55.9539 154.8 57.6517 154.282 59.0173C153.801 60.4198 153.449 61.3426 153.227 61.7855C152.782 62.5975 152.338 63.1696 151.894 63.5017C151.449 63.8339 151.024 64 150.616 64ZM148.062 33.3841C148.58 33.3841 149.228 33.0888 150.006 32.4983C150.783 31.9077 151.598 31.1695 152.449 30.2837C153.301 29.361 154.115 28.3829 154.893 27.3495C155.707 26.316 156.411 25.3564 157.003 24.4706C157.633 23.5479 158.058 22.8097 158.28 22.2561C157.503 22.2561 156.651 22.5329 155.726 23.0865C154.837 23.6032 153.949 24.286 153.06 25.1349C152.171 25.9839 151.338 26.8697 150.561 27.7924C149.783 28.7151 149.135 29.5825 148.617 30.3945C148.136 31.2065 147.821 31.8339 147.673 32.2768C147.562 32.5352 147.506 32.7382 147.506 32.8858C147.506 33.218 147.692 33.3841 148.062 33.3841Z" fill="#0A0908"/>
</svg>
